<svg style="position: absolute; width: 0; height: 0; overflow: hidden;" version="1.1" xmlns="http://www.w3.org/2000/svg" xmlns:xlink="http://www.w3.org/1999/xlink">
<defs>
<symbol id="icon-Icon1" viewBox="0 0 40 32">
<title>Icon1</title>
<path class="path1" fill="#43484d" opacity="0.3" d="M2.444 19.311c-0.059 0-0.119-0.009-0.179-0.027l-1.818-0.565c-0.319-0.099-0.497-0.437-0.398-0.757 0.099-0.318 0.437-0.496 0.756-0.398l1.818 0.565c0.319 0.099 0.497 0.438 0.398 0.757-0.081 0.259-0.319 0.425-0.577 0.425zM7.877 20.997c-0.059 0-0.119-0.009-0.179-0.027l-2.717-0.843c-0.319-0.099-0.497-0.437-0.397-0.757 0.099-0.318 0.437-0.496 0.756-0.398l2.717 0.843c0.319 0.099 0.497 0.438 0.398 0.757-0.080 0.259-0.319 0.425-0.577 0.425z"></path>
<path class="path2" fill="#43484d" opacity="0.3" d="M34.281 20.024c-0.053 0-0.105-0.006-0.159-0.021l-2.746-0.742c-0.322-0.087-0.513-0.419-0.426-0.742s0.423-0.513 0.741-0.425l2.746 0.743c0.322 0.087 0.513 0.418 0.425 0.741-0.073 0.269-0.316 0.447-0.582 0.447zM38.864 21.264c-0.053 0-0.105-0.007-0.158-0.021l-1.837-0.497c-0.322-0.087-0.513-0.42-0.426-0.742s0.422-0.513 0.741-0.425l1.837 0.497c0.322 0.087 0.513 0.42 0.426 0.742-0.073 0.269-0.317 0.447-0.583 0.447z"></path>
<path class="path3" fill="#e0e7ed" d="M24.246 1.154h-14.603c-1.178 0-2.133 0.955-2.133 2.133v25.95c0 1.178 0.955 2.133 2.133 2.133h20.59c1.178 0 2.133-0.955 2.133-2.133v-19.782z"></path>
<path class="path4" fill="#43484d" d="M30.233 31.976h-20.59c-1.51 0-2.738-1.228-2.738-2.738v-25.951c0-1.51 1.228-2.738 2.738-2.738h14.603c0.334 0 0.604 0.271 0.604 0.604s-0.27 0.604-0.604 0.604h-14.603c-0.843 0-1.529 0.686-1.529 1.529v25.951c0 0.843 0.685 1.529 1.529 1.529h20.59c0.843 0 1.529-0.686 1.529-1.529v-19.782c0-0.334 0.27-0.605 0.604-0.605s0.604 0.271 0.604 0.605v19.782c0 1.51-1.228 2.738-2.738 2.738z"></path>
<path class="path5" fill="#fefefe" d="M24.246 1.154v6.523c0 0.982 0.796 1.778 1.778 1.778h6.342l-8.12-8.301z"></path>
<path class="path6" fill="#43484d" d="M24.851 2.636v5.041c0 0.647 0.526 1.173 1.173 1.173h4.906l-6.079-6.214zM32.366 10.060h-6.342c-1.313 0-2.381-1.069-2.381-2.382v-6.523c0-0.246 0.149-0.467 0.375-0.56 0.228-0.092 0.489-0.038 0.661 0.137l8.12 8.302c0.17 0.174 0.219 0.432 0.125 0.656s-0.314 0.37-0.557 0.37v0z"></path>
<path class="path7" fill="#43484d" d="M14.436 23.137c-0.059 0-0.118-0.009-0.176-0.026l-6.926-2.108c-0.32-0.097-0.5-0.434-0.403-0.754 0.098-0.32 0.437-0.5 0.755-0.402l6.606 2.011 7.386-6.406c0.151-0.132 0.358-0.181 0.555-0.127l10.293 2.803c0.323 0.087 0.512 0.42 0.425 0.742s-0.421 0.51-0.742 0.425l-9.982-2.719-7.393 6.414c-0.112 0.097-0.252 0.148-0.396 0.148z"></path>
<path class="path8" fill="#fefefe" d="M16.064 21.237c0.705 0.743 0.676 1.917-0.068 2.623s-1.917 0.676-2.623-0.068c-0.706-0.743-0.676-1.917 0.067-2.623s1.918-0.676 2.623 0.068z"></path>
<path class="path9" fill="#43484d" d="M14.719 21.264c-0.322 0-0.628 0.122-0.862 0.343-0.499 0.476-0.519 1.269-0.044 1.769 0.459 0.484 1.283 0.505 1.769 0.046 0.5-0.475 0.52-1.269 0.045-1.769-0.239-0.251-0.561-0.389-0.907-0.389zM14.719 24.974c-0.671 0-1.321-0.279-1.783-0.765-0.934-0.983-0.895-2.544 0.088-3.478 0.947-0.897 2.579-0.856 3.479 0.089 0.934 0.984 0.894 2.544-0.090 3.478-0.459 0.436-1.060 0.676-1.694 0.676z"></path>
<path class="path10" fill="#fefefe" d="M23.369 14.629c0.705 0.743 0.676 1.917-0.068 2.623s-1.917 0.676-2.623-0.068c-0.706-0.743-0.676-1.917 0.067-2.623s1.918-0.676 2.623 0.068z"></path>
<path class="path11" fill="#43484d" d="M22.024 14.656c-0.322 0-0.628 0.122-0.861 0.343-0.243 0.23-0.381 0.541-0.39 0.875s0.113 0.651 0.344 0.894c0.459 0.484 1.283 0.506 1.769 0.045 0.5-0.475 0.52-1.268 0.045-1.769-0.238-0.251-0.56-0.389-0.907-0.389zM22.024 18.367c-0.671 0-1.321-0.279-1.783-0.765-0.453-0.476-0.693-1.101-0.676-1.758s0.288-1.268 0.765-1.72c0.944-0.899 2.58-0.856 3.477 0.089 0.934 0.984 0.894 2.544-0.090 3.478-0.459 0.436-1.060 0.676-1.694 0.676z"></path>
</symbol>
<symbol id="icon-Icon2" viewBox="0 0 35 32">
<title>Icon2</title>
<path class="path1" fill="#43484d" opacity="0.3" d="M8.714 9.811h-2.605c-0.311 0-0.562-0.257-0.562-0.572s0.252-0.572 0.562-0.572h2.605c0.31 0 0.562 0.257 0.562 0.572s-0.252 0.572-0.562 0.572v0zM13.924 9.811h-2.605c-0.31 0-0.562-0.257-0.562-0.572s0.252-0.572 0.562-0.572h2.605c0.31 0 0.562 0.257 0.562 0.572s-0.252 0.572-0.562 0.572v0zM19.134 9.811h-2.605c-0.31 0-0.562-0.257-0.562-0.572s0.252-0.572 0.562-0.572h2.605c0.31 0 0.562 0.257 0.562 0.572s-0.252 0.572-0.562 0.572v0zM29.554 9.811h-2.605c-0.31 0-0.562-0.257-0.562-0.572s0.252-0.572 0.562-0.572h2.605c0.31 0 0.562 0.257 0.562 0.572s-0.252 0.572-0.562 0.572v0zM1.229 10.919c-0.125 0-0.251-0.042-0.355-0.13-0.241-0.2-0.276-0.56-0.079-0.805 0.667-0.831 1.654-1.311 2.706-1.317 0.325 0.003 0.564 0.253 0.565 0.569s-0.249 0.574-0.558 0.576c-0.716 0.004-1.389 0.331-1.843 0.898-0.11 0.138-0.272 0.21-0.435 0.21v0zM33.928 11.797c-0.23 0-0.445-0.145-0.528-0.377-0.245-0.687-0.773-1.222-1.449-1.467-0.292-0.106-0.445-0.434-0.34-0.731s0.426-0.453 0.718-0.347c0.992 0.361 1.768 1.146 2.128 2.156 0.106 0.297-0.045 0.625-0.336 0.733-0.063 0.024-0.128 0.035-0.192 0.035v0zM0.562 16.069c-0.31 0-0.562-0.257-0.562-0.572v-2.655c0-0.316 0.252-0.572 0.562-0.572s0.562 0.257 0.562 0.572v2.655c0 0.316-0.252 0.572-0.562 0.572v0zM34.105 17.084c-0.31 0-0.562-0.257-0.562-0.572v-2.655c0-0.316 0.252-0.572 0.562-0.572s0.562 0.257 0.562 0.572v2.655c0 0.316-0.252 0.572-0.562 0.572v0zM0.562 21.377c-0.31 0-0.562-0.257-0.562-0.572v-2.655c0-0.316 0.252-0.572 0.562-0.572s0.562 0.257 0.562 0.572v2.655c0 0.316-0.252 0.572-0.562 0.572v0zM34.105 22.393c-0.31 0-0.562-0.257-0.562-0.572v-2.655c0-0.316 0.252-0.572 0.562-0.572s0.562 0.257 0.562 0.572v2.655c0 0.316-0.252 0.572-0.562 0.572v0zM0.733 26.665c-0.231 0-0.447-0.145-0.529-0.38-0.136-0.386-0.204-0.791-0.204-1.205v-1.621c0-0.316 0.252-0.572 0.562-0.572s0.562 0.257 0.562 0.572v1.621c0 0.282 0.046 0.558 0.139 0.821 0.104 0.298-0.049 0.625-0.341 0.731-0.062 0.023-0.126 0.033-0.188 0.033v0zM33.448 27.545c-0.124 0-0.249-0.042-0.353-0.127-0.241-0.199-0.279-0.56-0.083-0.805 0.348-0.438 0.531-0.968 0.531-1.534v-0.605c0-0.316 0.252-0.572 0.562-0.572s0.562 0.257 0.562 0.572v0.605c0 0.819-0.278 1.62-0.782 2.254-0.111 0.14-0.274 0.212-0.437 0.212v0zM5.095 28.667h-1.574c-0.413 0-0.818-0.072-1.202-0.215-0.292-0.108-0.442-0.436-0.336-0.733s0.428-0.45 0.72-0.343c0.261 0.097 0.537 0.146 0.818 0.146h1.574c0.311 0 0.562 0.257 0.562 0.572s-0.251 0.572-0.562 0.572v0zM10.306 28.667h-2.605c-0.31 0-0.562-0.257-0.562-0.572s0.252-0.572 0.562-0.572h2.605c0.31 0 0.562 0.257 0.562 0.572s-0.252 0.572-0.562 0.572v0zM15.516 28.667h-2.605c-0.311 0-0.562-0.257-0.562-0.572s0.251-0.572 0.562-0.572h2.605c0.31 0 0.562 0.257 0.562 0.572s-0.252 0.572-0.562 0.572v0zM20.726 28.667h-2.605c-0.31 0-0.562-0.257-0.562-0.572s0.252-0.572 0.562-0.572h2.605c0.31 0 0.562 0.257 0.562 0.572s-0.252 0.572-0.562 0.572v0zM28.541 28.667c-0.31 0-0.562-0.257-0.562-0.572s0.252-0.572 0.562-0.572h2.605c0.311 0 0.579 0.256 0.579 0.572s-0.235 0.572-0.545 0.572v-0.573l-0.018 0.573h-2.621z"></path>
<path class="path2" fill="#e0e7ed" d="M15.28 28.029h-7.167v-18.941h7.167z"></path>
<path class="path3" fill="#fefefe" d="M19.931 4.695h2.182z"></path>
<path class="path4" fill="#fefefe" d="M19.931 14.028h2.182z"></path>
<path class="path5" fill="#fefefe" d="M19.931 9.362h4.182z"></path>
<path class="path6" fill="#fefefe" d="M19.931 18.695h4.182z"></path>
<path class="path7" fill="#fefefe" d="M19.931 23.362h2.182z"></path>
<path class="path8" fill="#fefefe" d="M19.931 28.028h4.182z"></path>
<path class="path9" fill="#43484d" d="M26.893 29.404c0 0.81-0.647 1.468-1.443 1.468h-3.935c-0.593 0-1.075-0.491-1.075-1.094v-1.252h3.533c0.305 0 0.554-0.253 0.554-0.563s-0.248-0.563-0.554-0.563h-3.533v-3.513h1.579c0.305 0 0.554-0.253 0.554-0.563s-0.248-0.563-0.554-0.563h-1.579v-3.513h3.533c0.305 0 0.554-0.253 0.554-0.563s-0.248-0.563-0.554-0.563h-3.533v-3.513h1.579c0.305 0 0.554-0.253 0.554-0.563s-0.248-0.563-0.554-0.563h-1.579v-3.513h3.533c0.305 0 0.554-0.253 0.554-0.563s-0.248-0.563-0.554-0.563h-3.533v-3.513h1.579c0.305 0 0.554-0.253 0.554-0.563s-0.248-0.563-0.554-0.563h-1.579v-1.978c0-0.603 0.482-1.094 1.075-1.094h4.303c0.593 0 1.075 0.491 1.075 1.094v27.183zM25.818 0h-4.303c-1.203 0-2.182 0.996-2.182 2.221v27.558c0 1.225 0.979 2.221 2.182 2.221h3.935c1.406 0 2.55-1.165 2.55-2.596v-27.183c0-1.224-0.979-2.221-2.182-2.221v0z"></path>
<path class="path10" fill="#fefefe" d="M8.613 9.087h6.167z"></path>
<path class="path11" fill="#fefefe" d="M8.113 28.028h7.167z"></path>
<path class="path12" fill="#fefefe" d="M11.697 9.087v18.497z"></path>
<path class="path13" fill="#fefefe" d="M11.697 4.741v-1.713z"></path>
<path class="path14" fill="#43484d" d="M12.451 30.878h-2.236c-0.987 0-1.79-0.824-1.79-1.838v-0.498h5.815v0.498c0 1.013-0.803 1.838-1.79 1.838v0zM10.79 5.782c0.123-0.189 0.321-0.297 0.543-0.297s0.42 0.108 0.543 0.297l1.885 2.883h-4.857l1.886-2.883zM11.88 9.788h2.347c0.006 0.064 0.014 0.127 0.014 0.192v17.44h-2.361v-17.632zM8.426 9.98c0-0.065 0.008-0.128 0.014-0.192h2.348v17.632h-2.361v-17.44zM14.832 8.289l-2.049-3.132c-0.219-0.335-0.541-0.568-0.903-0.692v-1.237c0-0.31-0.245-0.561-0.546-0.561s-0.546 0.252-0.546 0.561v1.237c-0.362 0.123-0.684 0.357-0.904 0.692l-2.049 3.132c-0.328 0.502-0.501 1.086-0.501 1.691v19.061c0 1.632 1.292 2.96 2.882 2.96h2.236c1.589 0 2.882-1.328 2.882-2.96v-19.061c0-0.605-0.174-1.189-0.502-1.691v0z"></path>
</symbol>
<symbol id="icon-Icon3" viewBox="0 0 31 32">
<title>Icon3</title>
<path class="path1" fill="#e0e7ed" d="M0.567 2.492v7.305h30.211v-7.305c0-1.105-0.895-2-2-2h-26.211c-1.105 0-2 0.895-2 2z"></path>
<path class="path2" fill="#43484d" d="M28.768 30.871h-26.202c-0.79 0-1.433-0.64-1.433-1.427v-18.989h29.067v18.989c0 0.787-0.642 1.427-1.433 1.427v0zM1.133 2.617c0-0.787 0.643-1.427 1.433-1.427h26.202c0.79 0 1.433 0.64 1.433 1.427v6.71h-29.067v-6.71zM28.768 0h-26.202c-1.415 0-2.566 1.146-2.566 2.556v26.888c0 1.409 1.151 2.556 2.566 2.556h26.202c1.415 0 2.566-1.146 2.566-2.556v-26.888c0-1.409-1.151-2.556-2.566-2.556v0z"></path>
<path class="path3" fill="#43484d" d="M11.836 17.548c-0.221-0.221-0.58-0.221-0.801 0l-3.11 3.11c-0.221 0.221-0.221 0.58 0 0.801l3.11 3.11c0.111 0.111 0.255 0.166 0.401 0.166s0.29-0.055 0.401-0.166c0.221-0.221 0.221-0.58 0-0.801l-2.709-2.709 2.709-2.709c0.221-0.221 0.221-0.58 0-0.801z"></path>
<path class="path4" fill="#43484d" d="M19.070 17.548c-0.221-0.221-0.58-0.221-0.801 0s-0.221 0.58 0 0.801l2.709 2.709-2.709 2.709c-0.221 0.221-0.221 0.58 0 0.801 0.111 0.111 0.255 0.166 0.401 0.166s0.29-0.055 0.401-0.166l3.111-3.11c0.106-0.106 0.166-0.25 0.166-0.401s-0.060-0.295-0.166-0.401l-3.111-3.11z"></path>
<path class="path5" fill="#43484d" d="M16.639 15.582c-0.295-0.093-0.616 0.073-0.71 0.371l-2.827 9.034c-0.093 0.299 0.073 0.617 0.371 0.71 0.056 0.018 0.113 0.026 0.169 0.026 0.241 0 0.465-0.155 0.541-0.397l2.827-9.034c0.093-0.299-0.073-0.617-0.371-0.71z"></path>
<path class="path6" fill="#43484d" d="M6.862 5.144c0 0.705-0.571 1.276-1.276 1.276s-1.275-0.571-1.275-1.276c0-0.705 0.571-1.276 1.275-1.276s1.276 0.571 1.276 1.276z"></path>
<path class="path7" fill="#43484d" opacity="0.3" d="M10.862 5.144c0 0.705-0.571 1.276-1.276 1.276s-1.275-0.571-1.275-1.276c0-0.705 0.571-1.276 1.275-1.276s1.276 0.571 1.276 1.276z"></path>
<path class="path8" fill="#43484d" opacity="0.3" d="M14.862 5.144c0 0.705-0.571 1.276-1.276 1.276s-1.275-0.571-1.275-1.276c0-0.705 0.571-1.276 1.275-1.276s1.276 0.571 1.276 1.276z"></path>
</symbol>
<symbol id="icon-Icon4" viewBox="0 0 32 32">
<title>Icon4</title>
<path class="path1" fill="#bdc6cf" d="M23.704 23.642c0.7-2.128 1.111-4.388 1.208-6.701h5.158c-0.212 3.195-1.486 6.098-3.48 8.364-0.92-0.645-1.882-1.202-2.886-1.663v0zM23.041 25.413c0.758 0.356 1.492 0.766 2.196 1.239-1.239 1.076-2.664 1.935-4.223 2.53 0.788-1.171 1.465-2.433 2.027-3.768v0zM9.172 25.308c0.589 1.421 1.307 2.761 2.152 3.997-1.691-0.597-3.234-1.501-4.562-2.654 0.771-0.517 1.576-0.966 2.409-1.343v0zM9.086 6.647c-0.802-0.368-1.577-0.802-2.32-1.301 1.276-1.108 2.753-1.985 4.367-2.581-0.806 1.21-1.489 2.509-2.047 3.881v0zM23.128 6.544c-0.532-1.288-1.175-2.51-1.926-3.656 1.484 0.591 2.842 1.426 4.030 2.456-0.677 0.453-1.379 0.854-2.104 1.199v0zM16.924 15.059v-5.056c1.751-0.086 3.459-0.408 5.087-0.967 0.601 1.917 0.952 3.948 1.028 6.023h-6.115zM16.924 16.941h6.105c-0.093 2.071-0.457 4.090-1.072 5.995-1.61-0.547-3.3-0.854-5.033-0.938v-5.057zM15.042 16.941v5.059c-1.639 0.082-3.237 0.371-4.765 0.867-0.601-1.884-0.958-3.88-1.050-5.926h5.816zM15.042 15.059h-5.825c0.074-2.044 0.416-4.046 1.002-5.939 1.547 0.507 3.165 0.797 4.823 0.881v5.058zM30.070 15.059h-5.147c-0.075-2.344-0.464-4.611-1.145-6.741 0.977-0.455 1.917-0.995 2.814-1.622 1.992 2.265 3.267 5.168 3.479 8.362v0zM18.27 2.083c1.276 1.512 2.315 3.271 3.102 5.183-1.426 0.487-2.918 0.771-4.448 0.855v-6.191c0.456 0.029 0.904 0.081 1.346 0.153v0zM15.042 1.931v6.187c-1.439-0.081-2.843-0.337-4.189-0.775 0.798-1.961 1.859-3.764 3.168-5.306 0.337-0.047 0.677-0.084 1.021-0.106v0zM5.41 6.696c0.965 0.676 1.978 1.256 3.036 1.73-0.66 2.099-1.038 4.328-1.112 6.633h-5.404c0.213-3.195 1.487-6.098 3.48-8.363v0zM1.929 16.941h5.416c0.094 2.275 0.494 4.496 1.173 6.593-1.084 0.48-2.12 1.079-3.108 1.771-1.993-2.266-3.268-5.169-3.48-8.364v0zM14.22 29.993c-1.362-1.548-2.463-3.368-3.294-5.357 1.323-0.423 2.701-0.675 4.116-0.754v6.187c-0.276-0.019-0.55-0.042-0.822-0.076v0zM16.924 30.071v-6.19c1.506 0.082 2.975 0.353 4.377 0.824-0.82 1.943-1.9 3.722-3.229 5.243-0.378 0.056-0.76 0.098-1.148 0.122v0zM27.542 27.063c2.756-2.874 4.458-6.766 4.458-11.063 0-7.862-5.674-14.384-13.147-15.732-0.008-0.001-0.016-0.003-0.024-0.004-0.92-0.164-1.862-0.264-2.828-0.264-8.837 0-16 7.163-16 16 0 4.312 1.714 8.219 4.488 11.096 0.010 0.015 0.012 0.033 0.024 0.048 0.026 0.034 0.064 0.052 0.094 0.081 2.902 2.945 6.933 4.775 11.394 4.775 4.441 0 8.458-1.812 11.358-4.735 0.045-0.040 0.101-0.063 0.139-0.113 0.022-0.027 0.026-0.060 0.044-0.089v0z"></path>
</symbol>
</defs>
</svg>
