<?xml version="1.0" encoding="utf-8"?>
<!-- Generated by IcoMoon.io -->
<!DOCTYPE svg PUBLIC "-//W3C//DTD SVG 1.1//EN" "http://www.w3.org/Graphics/SVG/1.1/DTD/svg11.dtd">
<svg version="1.1" xmlns="http://www.w3.org/2000/svg" xmlns:xlink="http://www.w3.org/1999/xlink" width="40" height="32" viewBox="0 0 40 32">
<path fill="#43484d" opacity="0.3" d="M2.444 19.311c-0.059 0-0.119-0.009-0.179-0.027l-1.818-0.565c-0.319-0.099-0.497-0.437-0.398-0.757 0.099-0.318 0.437-0.496 0.756-0.398l1.818 0.565c0.319 0.099 0.497 0.438 0.398 0.757-0.081 0.259-0.319 0.425-0.577 0.425zM7.877 20.997c-0.059 0-0.119-0.009-0.179-0.027l-2.717-0.843c-0.319-0.099-0.497-0.437-0.397-0.757 0.099-0.318 0.437-0.496 0.756-0.398l2.717 0.843c0.319 0.099 0.497 0.438 0.398 0.757-0.080 0.259-0.319 0.425-0.577 0.425z"></path>
<path fill="#43484d" opacity="0.3" d="M34.281 20.024c-0.053 0-0.105-0.006-0.159-0.021l-2.746-0.742c-0.322-0.087-0.513-0.419-0.426-0.742s0.423-0.513 0.741-0.425l2.746 0.743c0.322 0.087 0.513 0.418 0.425 0.741-0.073 0.269-0.316 0.447-0.582 0.447zM38.864 21.264c-0.053 0-0.105-0.007-0.158-0.021l-1.837-0.497c-0.322-0.087-0.513-0.42-0.426-0.742s0.422-0.513 0.741-0.425l1.837 0.497c0.322 0.087 0.513 0.42 0.426 0.742-0.073 0.269-0.317 0.447-0.583 0.447z"></path>
<path fill="#e0e7ed" d="M24.246 1.154h-14.603c-1.178 0-2.133 0.955-2.133 2.133v25.95c0 1.178 0.955 2.133 2.133 2.133h20.59c1.178 0 2.133-0.955 2.133-2.133v-19.782z"></path>
<path fill="#43484d" d="M30.233 31.976h-20.59c-1.51 0-2.738-1.228-2.738-2.738v-25.951c0-1.51 1.228-2.738 2.738-2.738h14.603c0.334 0 0.604 0.271 0.604 0.604s-0.27 0.604-0.604 0.604h-14.603c-0.843 0-1.529 0.686-1.529 1.529v25.951c0 0.843 0.685 1.529 1.529 1.529h20.59c0.843 0 1.529-0.686 1.529-1.529v-19.782c0-0.334 0.27-0.605 0.604-0.605s0.604 0.271 0.604 0.605v19.782c0 1.51-1.228 2.738-2.738 2.738z"></path>
<path fill="#fefefe" d="M24.246 1.154v6.523c0 0.982 0.796 1.778 1.778 1.778h6.342l-8.12-8.301z"></path>
<path fill="#43484d" d="M24.851 2.636v5.041c0 0.647 0.526 1.173 1.173 1.173h4.906l-6.079-6.214zM32.366 10.060h-6.342c-1.313 0-2.381-1.069-2.381-2.382v-6.523c0-0.246 0.149-0.467 0.375-0.56 0.228-0.092 0.489-0.038 0.661 0.137l8.12 8.302c0.17 0.174 0.219 0.432 0.125 0.656s-0.314 0.37-0.557 0.37v0z"></path>
<path fill="#43484d" d="M14.436 23.137c-0.059 0-0.118-0.009-0.176-0.026l-6.926-2.108c-0.32-0.097-0.5-0.434-0.403-0.754 0.098-0.32 0.437-0.5 0.755-0.402l6.606 2.011 7.386-6.406c0.151-0.132 0.358-0.181 0.555-0.127l10.293 2.803c0.323 0.087 0.512 0.42 0.425 0.742s-0.421 0.51-0.742 0.425l-9.982-2.719-7.393 6.414c-0.112 0.097-0.252 0.148-0.396 0.148z"></path>
<path fill="#fefefe" d="M16.064 21.237c0.705 0.743 0.676 1.917-0.068 2.623s-1.917 0.676-2.623-0.068c-0.706-0.743-0.676-1.917 0.067-2.623s1.918-0.676 2.623 0.068z"></path>
<path fill="#43484d" d="M14.719 21.264c-0.322 0-0.628 0.122-0.862 0.343-0.499 0.476-0.519 1.269-0.044 1.769 0.459 0.484 1.283 0.505 1.769 0.046 0.5-0.475 0.52-1.269 0.045-1.769-0.239-0.251-0.561-0.389-0.907-0.389zM14.719 24.974c-0.671 0-1.321-0.279-1.783-0.765-0.934-0.983-0.895-2.544 0.088-3.478 0.947-0.897 2.579-0.856 3.479 0.089 0.934 0.984 0.894 2.544-0.090 3.478-0.459 0.436-1.060 0.676-1.694 0.676z"></path>
<path fill="#fefefe" d="M23.369 14.629c0.705 0.743 0.676 1.917-0.068 2.623s-1.917 0.676-2.623-0.068c-0.706-0.743-0.676-1.917 0.067-2.623s1.918-0.676 2.623 0.068z"></path>
<path fill="#43484d" d="M22.024 14.656c-0.322 0-0.628 0.122-0.861 0.343-0.243 0.23-0.381 0.541-0.39 0.875s0.113 0.651 0.344 0.894c0.459 0.484 1.283 0.506 1.769 0.045 0.5-0.475 0.52-1.268 0.045-1.769-0.238-0.251-0.56-0.389-0.907-0.389zM22.024 18.367c-0.671 0-1.321-0.279-1.783-0.765-0.453-0.476-0.693-1.101-0.676-1.758s0.288-1.268 0.765-1.72c0.944-0.899 2.58-0.856 3.477 0.089 0.934 0.984 0.894 2.544-0.090 3.478-0.459 0.436-1.060 0.676-1.694 0.676z"></path>
</svg>
