<?xml version="1.0" encoding="utf-8"?>
<!-- Generated by IcoMoon.io -->
<!DOCTYPE svg PUBLIC "-//W3C//DTD SVG 1.1//EN" "http://www.w3.org/Graphics/SVG/1.1/DTD/svg11.dtd">
<svg version="1.1" xmlns="http://www.w3.org/2000/svg" xmlns:xlink="http://www.w3.org/1999/xlink" width="31" height="32" viewBox="0 0 31 32">
<path fill="#e0e7ed" d="M0.567 2.492v7.305h30.211v-7.305c0-1.105-0.895-2-2-2h-26.211c-1.105 0-2 0.895-2 2z"></path>
<path fill="#43484d" d="M28.768 30.871h-26.202c-0.79 0-1.433-0.64-1.433-1.427v-18.989h29.067v18.989c0 0.787-0.642 1.427-1.433 1.427v0zM1.133 2.617c0-0.787 0.643-1.427 1.433-1.427h26.202c0.79 0 1.433 0.64 1.433 1.427v6.71h-29.067v-6.71zM28.768 0h-26.202c-1.415 0-2.566 1.146-2.566 2.556v26.888c0 1.409 1.151 2.556 2.566 2.556h26.202c1.415 0 2.566-1.146 2.566-2.556v-26.888c0-1.409-1.151-2.556-2.566-2.556v0z"></path>
<path fill="#43484d" d="M11.836 17.548c-0.221-0.221-0.58-0.221-0.801 0l-3.11 3.11c-0.221 0.221-0.221 0.58 0 0.801l3.11 3.11c0.111 0.111 0.255 0.166 0.401 0.166s0.29-0.055 0.401-0.166c0.221-0.221 0.221-0.58 0-0.801l-2.709-2.709 2.709-2.709c0.221-0.221 0.221-0.58 0-0.801z"></path>
<path fill="#43484d" d="M19.070 17.548c-0.221-0.221-0.58-0.221-0.801 0s-0.221 0.58 0 0.801l2.709 2.709-2.709 2.709c-0.221 0.221-0.221 0.58 0 0.801 0.111 0.111 0.255 0.166 0.401 0.166s0.29-0.055 0.401-0.166l3.111-3.11c0.106-0.106 0.166-0.25 0.166-0.401s-0.060-0.295-0.166-0.401l-3.111-3.11z"></path>
<path fill="#43484d" d="M16.639 15.582c-0.295-0.093-0.616 0.073-0.71 0.371l-2.827 9.034c-0.093 0.299 0.073 0.617 0.371 0.71 0.056 0.018 0.113 0.026 0.169 0.026 0.241 0 0.465-0.155 0.541-0.397l2.827-9.034c0.093-0.299-0.073-0.617-0.371-0.71z"></path>
<path fill="#43484d" d="M6.862 5.144c0 0.705-0.571 1.276-1.276 1.276s-1.275-0.571-1.275-1.276c0-0.705 0.571-1.276 1.275-1.276s1.276 0.571 1.276 1.276z"></path>
<path fill="#43484d" opacity="0.3" d="M10.862 5.144c0 0.705-0.571 1.276-1.276 1.276s-1.275-0.571-1.275-1.276c0-0.705 0.571-1.276 1.275-1.276s1.276 0.571 1.276 1.276z"></path>
<path fill="#43484d" opacity="0.3" d="M14.862 5.144c0 0.705-0.571 1.276-1.276 1.276s-1.275-0.571-1.275-1.276c0-0.705 0.571-1.276 1.275-1.276s1.276 0.571 1.276 1.276z"></path>
</svg>
