<?xml version="1.0" encoding="utf-8"?>
<!-- Generated by IcoMoon.io -->
<!DOCTYPE svg PUBLIC "-//W3C//DTD SVG 1.1//EN" "http://www.w3.org/Graphics/SVG/1.1/DTD/svg11.dtd">
<svg version="1.1" xmlns="http://www.w3.org/2000/svg" xmlns:xlink="http://www.w3.org/1999/xlink" width="32" height="32" viewBox="0 0 32 32">
<path fill="#bdc6cf" d="M23.704 23.642c0.7-2.128 1.111-4.388 1.208-6.701h5.158c-0.212 3.195-1.486 6.098-3.48 8.364-0.92-0.645-1.882-1.202-2.886-1.663v0zM23.041 25.413c0.758 0.356 1.492 0.766 2.196 1.239-1.239 1.076-2.664 1.935-4.223 2.53 0.788-1.171 1.465-2.433 2.027-3.768v0zM9.172 25.308c0.589 1.421 1.307 2.761 2.152 3.997-1.691-0.597-3.234-1.501-4.562-2.654 0.771-0.517 1.576-0.966 2.409-1.343v0zM9.086 6.647c-0.802-0.368-1.577-0.802-2.32-1.301 1.276-1.108 2.753-1.985 4.367-2.581-0.806 1.21-1.489 2.509-2.047 3.881v0zM23.128 6.544c-0.532-1.288-1.175-2.51-1.926-3.656 1.484 0.591 2.842 1.426 4.030 2.456-0.677 0.453-1.379 0.854-2.104 1.199v0zM16.924 15.059v-5.056c1.751-0.086 3.459-0.408 5.087-0.967 0.601 1.917 0.952 3.948 1.028 6.023h-6.115zM16.924 16.941h6.105c-0.093 2.071-0.457 4.090-1.072 5.995-1.61-0.547-3.3-0.854-5.033-0.938v-5.057zM15.042 16.941v5.059c-1.639 0.082-3.237 0.371-4.765 0.867-0.601-1.884-0.958-3.88-1.050-5.926h5.816zM15.042 15.059h-5.825c0.074-2.044 0.416-4.046 1.002-5.939 1.547 0.507 3.165 0.797 4.823 0.881v5.058zM30.070 15.059h-5.147c-0.075-2.344-0.464-4.611-1.145-6.741 0.977-0.455 1.917-0.995 2.814-1.622 1.992 2.265 3.267 5.168 3.479 8.362v0zM18.27 2.083c1.276 1.512 2.315 3.271 3.102 5.183-1.426 0.487-2.918 0.771-4.448 0.855v-6.191c0.456 0.029 0.904 0.081 1.346 0.153v0zM15.042 1.931v6.187c-1.439-0.081-2.843-0.337-4.189-0.775 0.798-1.961 1.859-3.764 3.168-5.306 0.337-0.047 0.677-0.084 1.021-0.106v0zM5.41 6.696c0.965 0.676 1.978 1.256 3.036 1.73-0.66 2.099-1.038 4.328-1.112 6.633h-5.404c0.213-3.195 1.487-6.098 3.48-8.363v0zM1.929 16.941h5.416c0.094 2.275 0.494 4.496 1.173 6.593-1.084 0.48-2.12 1.079-3.108 1.771-1.993-2.266-3.268-5.169-3.48-8.364v0zM14.22 29.993c-1.362-1.548-2.463-3.368-3.294-5.357 1.323-0.423 2.701-0.675 4.116-0.754v6.187c-0.276-0.019-0.55-0.042-0.822-0.076v0zM16.924 30.071v-6.19c1.506 0.082 2.975 0.353 4.377 0.824-0.82 1.943-1.9 3.722-3.229 5.243-0.378 0.056-0.76 0.098-1.148 0.122v0zM27.542 27.063c2.756-2.874 4.458-6.766 4.458-11.063 0-7.862-5.674-14.384-13.147-15.732-0.008-0.001-0.016-0.003-0.024-0.004-0.92-0.164-1.862-0.264-2.828-0.264-8.837 0-16 7.163-16 16 0 4.312 1.714 8.219 4.488 11.096 0.010 0.015 0.012 0.033 0.024 0.048 0.026 0.034 0.064 0.052 0.094 0.081 2.902 2.945 6.933 4.775 11.394 4.775 4.441 0 8.458-1.812 11.358-4.735 0.045-0.040 0.101-0.063 0.139-0.113 0.022-0.027 0.026-0.060 0.044-0.089v0z"></path>
</svg>
