<?xml version="1.0" encoding="utf-8"?>
<!-- Generated by IcoMoon.io -->
<!DOCTYPE svg PUBLIC "-//W3C//DTD SVG 1.1//EN" "http://www.w3.org/Graphics/SVG/1.1/DTD/svg11.dtd">
<svg version="1.1" xmlns="http://www.w3.org/2000/svg" xmlns:xlink="http://www.w3.org/1999/xlink" width="35" height="32" viewBox="0 0 35 32">
<path fill="#43484d" opacity="0.3" d="M8.714 9.811h-2.605c-0.311 0-0.562-0.257-0.562-0.572s0.252-0.572 0.562-0.572h2.605c0.31 0 0.562 0.257 0.562 0.572s-0.252 0.572-0.562 0.572v0zM13.924 9.811h-2.605c-0.31 0-0.562-0.257-0.562-0.572s0.252-0.572 0.562-0.572h2.605c0.31 0 0.562 0.257 0.562 0.572s-0.252 0.572-0.562 0.572v0zM19.134 9.811h-2.605c-0.31 0-0.562-0.257-0.562-0.572s0.252-0.572 0.562-0.572h2.605c0.31 0 0.562 0.257 0.562 0.572s-0.252 0.572-0.562 0.572v0zM29.554 9.811h-2.605c-0.31 0-0.562-0.257-0.562-0.572s0.252-0.572 0.562-0.572h2.605c0.31 0 0.562 0.257 0.562 0.572s-0.252 0.572-0.562 0.572v0zM1.229 10.919c-0.125 0-0.251-0.042-0.355-0.13-0.241-0.2-0.276-0.56-0.079-0.805 0.667-0.831 1.654-1.311 2.706-1.317 0.325 0.003 0.564 0.253 0.565 0.569s-0.249 0.574-0.558 0.576c-0.716 0.004-1.389 0.331-1.843 0.898-0.11 0.138-0.272 0.21-0.435 0.21v0zM33.928 11.797c-0.23 0-0.445-0.145-0.528-0.377-0.245-0.687-0.773-1.222-1.449-1.467-0.292-0.106-0.445-0.434-0.34-0.731s0.426-0.453 0.718-0.347c0.992 0.361 1.768 1.146 2.128 2.156 0.106 0.297-0.045 0.625-0.336 0.733-0.063 0.024-0.128 0.035-0.192 0.035v0zM0.562 16.069c-0.31 0-0.562-0.257-0.562-0.572v-2.655c0-0.316 0.252-0.572 0.562-0.572s0.562 0.257 0.562 0.572v2.655c0 0.316-0.252 0.572-0.562 0.572v0zM34.105 17.084c-0.31 0-0.562-0.257-0.562-0.572v-2.655c0-0.316 0.252-0.572 0.562-0.572s0.562 0.257 0.562 0.572v2.655c0 0.316-0.252 0.572-0.562 0.572v0zM0.562 21.377c-0.31 0-0.562-0.257-0.562-0.572v-2.655c0-0.316 0.252-0.572 0.562-0.572s0.562 0.257 0.562 0.572v2.655c0 0.316-0.252 0.572-0.562 0.572v0zM34.105 22.393c-0.31 0-0.562-0.257-0.562-0.572v-2.655c0-0.316 0.252-0.572 0.562-0.572s0.562 0.257 0.562 0.572v2.655c0 0.316-0.252 0.572-0.562 0.572v0zM0.733 26.665c-0.231 0-0.447-0.145-0.529-0.38-0.136-0.386-0.204-0.791-0.204-1.205v-1.621c0-0.316 0.252-0.572 0.562-0.572s0.562 0.257 0.562 0.572v1.621c0 0.282 0.046 0.558 0.139 0.821 0.104 0.298-0.049 0.625-0.341 0.731-0.062 0.023-0.126 0.033-0.188 0.033v0zM33.448 27.545c-0.124 0-0.249-0.042-0.353-0.127-0.241-0.199-0.279-0.56-0.083-0.805 0.348-0.438 0.531-0.968 0.531-1.534v-0.605c0-0.316 0.252-0.572 0.562-0.572s0.562 0.257 0.562 0.572v0.605c0 0.819-0.278 1.62-0.782 2.254-0.111 0.14-0.274 0.212-0.437 0.212v0zM5.095 28.667h-1.574c-0.413 0-0.818-0.072-1.202-0.215-0.292-0.108-0.442-0.436-0.336-0.733s0.428-0.45 0.72-0.343c0.261 0.097 0.537 0.146 0.818 0.146h1.574c0.311 0 0.562 0.257 0.562 0.572s-0.251 0.572-0.562 0.572v0zM10.306 28.667h-2.605c-0.31 0-0.562-0.257-0.562-0.572s0.252-0.572 0.562-0.572h2.605c0.31 0 0.562 0.257 0.562 0.572s-0.252 0.572-0.562 0.572v0zM15.516 28.667h-2.605c-0.311 0-0.562-0.257-0.562-0.572s0.251-0.572 0.562-0.572h2.605c0.31 0 0.562 0.257 0.562 0.572s-0.252 0.572-0.562 0.572v0zM20.726 28.667h-2.605c-0.31 0-0.562-0.257-0.562-0.572s0.252-0.572 0.562-0.572h2.605c0.31 0 0.562 0.257 0.562 0.572s-0.252 0.572-0.562 0.572v0zM28.541 28.667c-0.31 0-0.562-0.257-0.562-0.572s0.252-0.572 0.562-0.572h2.605c0.311 0 0.579 0.256 0.579 0.572s-0.235 0.572-0.545 0.572v-0.573l-0.018 0.573h-2.621z"></path>
<path fill="#e0e7ed" d="M15.28 28.029h-7.167v-18.941h7.167z"></path>
<path fill="#fefefe" d="M19.931 4.695h2.182z"></path>
<path fill="#fefefe" d="M19.931 14.028h2.182z"></path>
<path fill="#fefefe" d="M19.931 9.362h4.182z"></path>
<path fill="#fefefe" d="M19.931 18.695h4.182z"></path>
<path fill="#fefefe" d="M19.931 23.362h2.182z"></path>
<path fill="#fefefe" d="M19.931 28.028h4.182z"></path>
<path fill="#43484d" d="M26.893 29.404c0 0.81-0.647 1.468-1.443 1.468h-3.935c-0.593 0-1.075-0.491-1.075-1.094v-1.252h3.533c0.305 0 0.554-0.253 0.554-0.563s-0.248-0.563-0.554-0.563h-3.533v-3.513h1.579c0.305 0 0.554-0.253 0.554-0.563s-0.248-0.563-0.554-0.563h-1.579v-3.513h3.533c0.305 0 0.554-0.253 0.554-0.563s-0.248-0.563-0.554-0.563h-3.533v-3.513h1.579c0.305 0 0.554-0.253 0.554-0.563s-0.248-0.563-0.554-0.563h-1.579v-3.513h3.533c0.305 0 0.554-0.253 0.554-0.563s-0.248-0.563-0.554-0.563h-3.533v-3.513h1.579c0.305 0 0.554-0.253 0.554-0.563s-0.248-0.563-0.554-0.563h-1.579v-1.978c0-0.603 0.482-1.094 1.075-1.094h4.303c0.593 0 1.075 0.491 1.075 1.094v27.183zM25.818 0h-4.303c-1.203 0-2.182 0.996-2.182 2.221v27.558c0 1.225 0.979 2.221 2.182 2.221h3.935c1.406 0 2.55-1.165 2.55-2.596v-27.183c0-1.224-0.979-2.221-2.182-2.221v0z"></path>
<path fill="#fefefe" d="M8.613 9.087h6.167z"></path>
<path fill="#fefefe" d="M8.113 28.028h7.167z"></path>
<path fill="#fefefe" d="M11.697 9.087v18.497z"></path>
<path fill="#fefefe" d="M11.697 4.741v-1.713z"></path>
<path fill="#43484d" d="M12.451 30.878h-2.236c-0.987 0-1.79-0.824-1.79-1.838v-0.498h5.815v0.498c0 1.013-0.803 1.838-1.79 1.838v0zM10.79 5.782c0.123-0.189 0.321-0.297 0.543-0.297s0.42 0.108 0.543 0.297l1.885 2.883h-4.857l1.886-2.883zM11.88 9.788h2.347c0.006 0.064 0.014 0.127 0.014 0.192v17.44h-2.361v-17.632zM8.426 9.98c0-0.065 0.008-0.128 0.014-0.192h2.348v17.632h-2.361v-17.44zM14.832 8.289l-2.049-3.132c-0.219-0.335-0.541-0.568-0.903-0.692v-1.237c0-0.31-0.245-0.561-0.546-0.561s-0.546 0.252-0.546 0.561v1.237c-0.362 0.123-0.684 0.357-0.904 0.692l-2.049 3.132c-0.328 0.502-0.501 1.086-0.501 1.691v19.061c0 1.632 1.292 2.96 2.882 2.96h2.236c1.589 0 2.882-1.328 2.882-2.96v-19.061c0-0.605-0.174-1.189-0.502-1.691v0z"></path>
</svg>
